<svg xmlns="http://www.w3.org/2000/svg" width="90" height="43" viewBox="0 0 90 43">
    <defs>
        <linearGradient id="r01iybvj8a" x1="-.15%" x2="100.588%" y1="51.005%" y2="49.653%">
            <stop offset="0%" stop-color="#5DA9DD"/>
            <stop offset=".404%" stop-color="#5DA8DC"/>
            <stop offset="23.44%" stop-color="#3B83C1"/>
            <stop offset="45.56%" stop-color="#1C6CAF"/>
            <stop offset="66.26%" stop-color="#005DA4"/>
            <stop offset="84.99%" stop-color="#00559E"/>
            <stop offset="100%" stop-color="#00529C"/>
        </linearGradient>
        <linearGradient id="davycjeoeb" x1=".203%" x2="100%" y1="50.509%" y2="49.075%">
            <stop offset="0%" stop-color="#5DA9DD"/>
            <stop offset=".404%" stop-color="#5DA8DC"/>
            <stop offset="23.44%" stop-color="#3B83C1"/>
            <stop offset="45.56%" stop-color="#1C6CAF"/>
            <stop offset="66.26%" stop-color="#005DA4"/>
            <stop offset="84.99%" stop-color="#00559E"/>
            <stop offset="100%" stop-color="#00529C"/>
        </linearGradient>
        <linearGradient id="c6me3p1qyc" x1="-.674%" x2="100.821%" y1="51.16%" y2="49.233%">
            <stop offset="0%" stop-color="#5DA9DD"/>
            <stop offset=".404%" stop-color="#5DA8DC"/>
            <stop offset="23.44%" stop-color="#3B83C1"/>
            <stop offset="45.56%" stop-color="#1C6CAF"/>
            <stop offset="66.26%" stop-color="#005DA4"/>
            <stop offset="84.99%" stop-color="#00559E"/>
            <stop offset="100%" stop-color="#00529C"/>
        </linearGradient>
        <linearGradient id="0mz7zxjc2d" x1="1.02%" x2="97.33%" y1="45.754%" y2="50.866%">
            <stop offset="0%" stop-color="#75BEE9"/>
            <stop offset="12.72%" stop-color="#65ADDF"/>
            <stop offset="37.81%" stop-color="#4A93CF"/>
            <stop offset="61.45%" stop-color="#3482C4"/>
            <stop offset="82.85%" stop-color="#2378BE"/>
            <stop offset="100%" stop-color="#1B75BC"/>
        </linearGradient>
        <linearGradient id="kysag40e0e" x1="0%" x2="100%" y1="50%" y2="50%">
            <stop offset="0%" stop-color="#75BEE9"/>
            <stop offset="12.72%" stop-color="#65ADDF"/>
            <stop offset="37.81%" stop-color="#4A93CF"/>
            <stop offset="61.45%" stop-color="#3482C4"/>
            <stop offset="82.85%" stop-color="#2378BE"/>
            <stop offset="100%" stop-color="#1B75BC"/>
        </linearGradient>
    </defs>
    <g fill="none" fill-rule="evenodd">
        <g>
            <g>
                <g>
                    <g>
                        <path fill="#000F47" d="M40.531 16.062s-17.311-2.066-20.349-4.637c0 0 .292-1.771.25-2.361 0 0 18.226 3.752 25.342 1.096 0 .042-3.204 4.384-5.243 5.902zM29.17 22.301s-8.821-4.131-10.278-6.745c0 0 .708-1.686.874-2.867 0 0 11.402 6.113 16.687 6.197 0 0-5.535 3.204-7.282 3.415zM19.142 24.83s-2.289-4.131-2.414-5.733c0 0 1.54-1.77 1.623-2.319 0 0 2.83 6.62 9.238 6.577 0 0-6.408 1.897-8.447 1.475zM8.988 20.699s7.241-4.68 9.571-9.106c0 0-3.495 2.782-5.992 3.246L8.988 20.7z" transform="translate(-20 -4) translate(20 4) translate(10.82)"/>
                        <path fill="url(#r01iybvj8a)" d="M19.766 12.69c-.166.842-.624 2.444-.874 2.866 2.58.632 11.652 3.12 21.722.506 2.164-1.77 3.912-3.92 5.16-5.86-7.032 3.415-12.692 3.162-17.477 3.415-5.119.042-7.407-.633-8.53-.928z" transform="translate(-20 -4) translate(20 4) translate(10.82)"/>
                        <path fill="url(#davycjeoeb)" d="M16.728 19.097c1.54.717 6.825 2.782 12.443 3.204 2.496-.717 5.118-2.234 7.282-3.415-8.614.295-16.396-1.602-18.102-2.108-.291.633-1.165 1.855-1.623 2.32z" transform="translate(-20 -4) translate(20 4) translate(10.82)"/>
                        <path fill="url(#c6me3p1qyc)" d="M44.151 1.349s.5.927 1.374 2.108c-5.743 2.74-14.274 6.24-25.093 5.649 0 1.138-.083 1.897-.25 2.36 1.415.38 12.276 2.74 27.631-5.227.708.717 1.498 1.35 2.289 1.77L52.848 0l-8.697 1.349z" transform="translate(-20 -4) translate(20 4) translate(10.82)"/>
                        <path fill="url(#0mz7zxjc2d)" d="M12.567 14.797c-3.454.97-6.492.295-6.492.295-1.872-1.222-3.162.633-3.162.633C-.583 16.23.29 18.507.29 18.507l.333.421c.416-1.433 3.246-.758 3.246-.758 2.205 1.054 3.87 1.855 5.118 2.529 1.79-1.602 2.955-3.625 3.58-5.902z" transform="translate(-20 -4) translate(20 4) translate(10.82)"/>
                        <path fill="url(#kysag40e0e)" d="M15.813 20.53l-1.248-.548c.083-.084.166-.21.29-.295 1.29-1.517 2.706-4.005 3.704-8.094-2.205 1.729-4.244 2.572-4.244 2.572-.042 0-.042.042-.083.042-.666 2.698-2.04 5.143-4.12 7.04.458.21 1.123.506 1.415.675 0 0 1.29.758 2.039 1.053 1.872.886 5.368 1.855 5.368 1.855 2.497.506 8.78-1.475 8.78-1.475-4.328-.127-10.986-2.487-11.901-2.825z" transform="translate(-20 -4) translate(20 4) translate(10.82)"/>
                    </g>
                    <g fill="#1B75BC" stroke="#1D75BC" stroke-width=".5">
                        <path d="M0.208 0.464L5.826 0.464 5.826 1.602 1.581 1.602 1.581 5.143 5.535 5.143 5.535 6.281 1.581 6.281 1.581 11.087 0.208 11.087z" transform="translate(-20 -4) translate(20 4) translate(32.874 27.402)"/>
                        <path fill-rule="nonzero" d="M8.24 7.757l-1.083 3.33H5.743L9.32.506h1.623l3.579 10.581h-1.457l-1.123-3.33H8.239zm3.453-1.096l-1.04-3.036c-.25-.674-.375-1.306-.541-1.939h-.042c-.166.633-.291 1.265-.54 1.94L8.488 6.702h3.204V6.66h0z" transform="translate(-20 -4) translate(20 4) translate(32.874 27.402)"/>
                        <path d="M16.063.464h1.373v9.443h4.452v1.138h-5.825V.464zM30.086 10.75c-.5.253-1.498.506-2.746.506-2.955 0-5.16-1.897-5.16-5.396 0-3.33 2.205-5.565 5.451-5.565 1.29 0 2.122.295 2.497.464l-.333 1.096c-.5-.253-1.249-.422-2.08-.422-2.456 0-4.079 1.602-4.079 4.385 0 2.613 1.457 4.257 3.995 4.257.832 0 1.664-.168 2.205-.421l.25 1.096z" transform="translate(-20 -4) translate(20 4) translate(32.874 27.402)"/>
                        <path fill-rule="nonzero" d="M40.406 5.649c0 3.626-2.205 5.565-4.869 5.565-2.788 0-4.702-2.192-4.702-5.396 0-3.373 2.04-5.565 4.827-5.565 2.913.042 4.744 2.234 4.744 5.396zm-8.114.169c0 2.276 1.206 4.3 3.37 4.3 2.123 0 3.37-1.982 3.37-4.385 0-2.108-1.081-4.342-3.328-4.342-2.289 0-3.412 2.108-3.412 4.427z" transform="translate(-20 -4) translate(20 4) translate(32.874 27.402)"/>
                        <path d="M42.154 11.087V.464h1.498l3.329 5.354c.749 1.222 1.373 2.36 1.873 3.457h.041c-.125-1.434-.166-2.699-.166-4.343V.464h1.29v10.581h-1.374L45.316 5.65c-.749-1.18-1.414-2.403-1.955-3.541h-.042c.083 1.349.083 2.614.083 4.384v4.51h-1.248v.085h0z" transform="translate(-20 -4) translate(20 4) translate(32.874 27.402)"/>
                    </g>
                    <path fill="#000F47" d="M8.115 37.857c-.5.253-1.582.59-2.955.59C2.039 38.49 0 36.34 0 33.135s2.164-5.564 5.535-5.564c1.123 0 2.08.295 2.621.548l-.416 1.433c-.458-.253-1.165-.506-2.164-.506-2.372 0-3.662 1.813-3.662 3.963 0 2.403 1.54 3.92 3.579 3.92 1.082 0 1.79-.253 2.289-.505l.333 1.433zM12.4 24.83c0 .633-.457 1.18-1.206 1.18-.666 0-1.124-.505-1.124-1.18 0-.632.458-1.18 1.165-1.18.708 0 1.166.506 1.166 1.18zM10.32 27.781H12.193V38.236H10.32zM17.56 25.252v2.53h2.705v1.433h-2.704v5.649c0 1.307.374 2.023 1.414 2.023.5 0 .833-.042 1.082-.126l.084 1.433c-.375.127-.957.253-1.665.253-.874 0-1.581-.295-2.039-.8-.5-.591-.707-1.519-.707-2.741v-5.691h-1.582V27.78h1.623v-1.939l1.79-.59zM23.262 27.781l2.247 6.197c.25.675.5 1.518.666 2.15h.041c.208-.632.416-1.433.666-2.192l2.039-6.155h1.997l-2.83 7.462c-1.33 3.583-2.246 5.396-3.536 6.534-.957.801-2.247 1.139-2.747 1.223l-.041-1.56c.457-.168 1.081-.464 1.664-.927.5-.422 1.124-1.138 1.581-2.108.084-.21.167-.337.167-.464 0-.126-.042-.253-.167-.506l-3.786-9.654h2.039z" transform="translate(-20 -4) translate(20 4)"/>
                </g>
                <path fill="#424142" fill-rule="nonzero" d="M90 26.875c0 1.396-1.061 2.443-2.42 2.443-1.358 0-2.419-1.09-2.419-2.443 0-1.352 1.061-2.443 2.42-2.443 1.358 0 2.419 1.09 2.419 2.443zm-4.287 0c0 1.09.764 1.92 1.825 1.92 1.019 0 1.783-.873 1.783-1.92 0-1.09-.764-1.963-1.825-1.963-.976.043-1.783.916-1.783 1.963zM87.2 28.14h-.552v-2.443c.212-.044.51-.087.891-.087.467 0 .637.087.807.174.127.088.212.306.212.524 0 .262-.212.48-.51.567v.044c.213.087.34.261.425.61.085.35.127.524.17.611h-.594c-.085-.087-.128-.305-.17-.61-.043-.262-.17-.393-.51-.393h-.254v1.003h.085zm0-1.352h.254c.297 0 .552-.088.552-.35 0-.217-.17-.348-.51-.348-.127 0-.254 0-.296.043v.655z" transform="translate(-20 -4) translate(20 4)"/>
            </g>
        </g>
    </g>
</svg>
